<svg width="14" height="14" viewBox="0 0 14 14" fill="none" xmlns="http://www.w3.org/2000/svg">
<path d="M12.25 7C12.25 7.11603 12.2039 7.22731 12.1219 7.30936C12.0398 7.39141 11.9285 7.4375 11.8125 7.4375H2.1875C2.07147 7.4375 1.96019 7.39141 1.87814 7.30936C1.79609 7.22731 1.75 7.11603 1.75 7C1.75 6.88397 1.79609 6.77269 1.87814 6.69064C1.96019 6.60859 2.07147 6.5625 2.1875 6.5625H11.8125C11.9285 6.5625 12.0398 6.60859 12.1219 6.69064C12.2039 6.77269 12.25 6.88397 12.25 7ZM2.1875 3.9375H11.8125C11.9285 3.9375 12.0398 3.89141 12.1219 3.80936C12.2039 3.72731 12.25 3.61603 12.25 3.5C12.25 3.38397 12.2039 3.27269 12.1219 3.19064C12.0398 3.10859 11.9285 3.0625 11.8125 3.0625H2.1875C2.07147 3.0625 1.96019 3.10859 1.87814 3.19064C1.79609 3.27269 1.75 3.38397 1.75 3.5C1.75 3.61603 1.79609 3.72731 1.87814 3.80936C1.96019 3.89141 2.07147 3.9375 2.1875 3.9375ZM11.8125 10.0625H2.1875C2.07147 10.0625 1.96019 10.1086 1.87814 10.1906C1.79609 10.2727 1.75 10.384 1.75 10.5C1.75 10.616 1.79609 10.7273 1.87814 10.8094C1.96019 10.8914 2.07147 10.9375 2.1875 10.9375H11.8125C11.9285 10.9375 12.0398 10.8914 12.1219 10.8094C12.2039 10.7273 12.25 10.616 12.25 10.5C12.25 10.384 12.2039 10.2727 12.1219 10.1906C12.0398 10.1086 11.9285 10.0625 11.8125 10.0625Z" fill="white"/>
</svg>
